<svg width="512" height="512" viewBox="0 0 512 512" fill="none" xmlns="http://www.w3.org/2000/svg">
<g clip-path="url(#clip0_56_111)">
<path d="M362.667 512C365.474 512.016 368.258 511.478 370.857 510.416C373.456 509.355 375.82 507.791 377.813 505.813C379.813 503.83 381.4 501.471 382.483 498.871C383.566 496.271 384.124 493.483 384.124 490.667C384.124 487.85 383.566 485.062 382.483 482.462C381.4 479.863 379.813 477.503 377.813 475.52L203.52 301.227C191.535 289.227 184.803 272.96 184.803 256C184.803 239.04 191.535 222.773 203.52 210.773L377.813 36.48C381.831 32.4629 384.087 27.0144 384.087 21.3333C384.087 15.6522 381.831 10.2038 377.813 6.18667C373.796 2.16953 368.348 -0.0872803 362.667 -0.0872803C356.986 -0.0872803 351.537 2.16953 347.52 6.18667L173.227 180.48C163.293 190.388 155.412 202.159 150.035 215.118C144.657 228.077 141.889 241.97 141.889 256C141.889 270.03 144.657 283.923 150.035 296.882C155.412 309.841 163.293 321.612 173.227 331.52L347.52 505.813C349.513 507.791 351.878 509.355 354.477 510.416C357.076 511.478 359.859 512.016 362.667 512Z" fill="black"/>
</g>
<defs>
<clipPath id="clip0_56_111">
<rect width="512" height="512" fill="white" transform="matrix(-1 0 0 1 512 0)"/>
</clipPath>
</defs>
</svg>
