<svg width="512" height="512" viewBox="0 0 512 512" fill="none" xmlns="http://www.w3.org/2000/svg">
<g clip-path="url(#clip0_56_109)">
<path d="M496.427 192.64C484.267 178.56 466.56 170.667 448 170.667H446.08C435.413 74.88 353.92 0 255.36 0C156.8 0 75.3066 74.88 64.6399 170.667H63.3599C44.7999 170.667 27.0932 178.773 14.9332 192.64C2.77322 206.72 -2.56011 225.28 -0.000113667 243.627L22.6132 401.92C31.5732 464.64 85.9732 511.787 149.333 511.787H362.027C425.387 511.787 479.787 464.64 488.747 401.92L511.36 243.627C513.92 225.28 508.587 206.72 496.427 192.64ZM255.36 42.6667C330.453 42.6667 392.533 98.3467 402.987 170.667H107.733C118.187 98.3467 180.267 42.6667 255.36 42.6667Z" fill="black"/>
</g>
<defs>
<clipPath id="clip0_56_109">
<rect width="512" height="512" fill="white"/>
</clipPath>
</defs>
</svg>
