<svg width="512" height="512" viewBox="0 0 512 512" fill="none" xmlns="http://www.w3.org/2000/svg">
<path d="M256 32C211.697 32 168.389 45.1374 131.552 69.7508C94.7156 94.3642 66.005 129.348 49.051 170.279C32.0969 211.21 27.661 256.248 36.3041 299.7C44.9472 343.152 66.2811 383.065 97.6081 414.392C128.935 445.719 168.848 467.053 212.3 475.696C255.752 484.339 300.79 479.903 341.721 462.949C382.652 445.995 417.636 417.284 442.249 380.448C466.863 343.611 480 300.303 480 256C480 196.592 456.4 139.616 414.392 97.6081C372.384 55.5999 315.408 32 256 32ZM256 448C218.026 448 180.905 436.739 149.33 415.642C117.756 394.545 93.1471 364.559 78.6151 329.475C64.0831 294.392 60.2808 255.787 67.6892 218.543C75.0976 181.298 93.3838 147.087 120.235 120.235C147.087 93.3838 181.298 75.0976 218.543 67.6892C255.787 60.2809 294.392 64.0831 329.475 78.6151C364.559 93.1472 394.545 117.756 415.642 149.331C436.739 180.905 448 218.026 448 256C448 306.922 427.771 355.758 391.764 391.764C355.757 427.771 306.922 448 256 448ZM368 256C368 260.243 366.314 264.313 363.314 267.314C360.313 270.314 356.243 272 352 272H272V352C272 356.243 270.314 360.313 267.314 363.314C264.313 366.314 260.243 368 256 368C251.757 368 247.687 366.314 244.686 363.314C241.686 360.313 240 356.243 240 352V272H160C155.757 272 151.687 270.314 148.686 267.314C145.686 264.313 144 260.243 144 256C144 251.757 145.686 247.687 148.686 244.686C151.687 241.686 155.757 240 160 240H240V160C240 155.757 241.686 151.687 244.686 148.686C247.687 145.686 251.757 144 256 144C260.243 144 264.313 145.686 267.314 148.686C270.314 151.687 272 155.757 272 160V240H352C356.243 240 360.313 241.686 363.314 244.686C366.314 247.687 368 251.757 368 256Z" fill="black"/>
</svg>
