<svg width="512" height="512" viewBox="0 0 512 512" fill="none" xmlns="http://www.w3.org/2000/svg">
<g clip-path="url(#clip0_56_127)">
<path d="M493.227 211.413L410.667 128C408.683 126 406.324 124.413 403.724 123.33C401.125 122.247 398.336 121.69 395.52 121.69C392.704 121.69 389.915 122.247 387.316 123.33C384.716 124.413 382.357 126 380.373 128C376.4 131.997 374.17 137.404 374.17 143.04C374.17 148.676 376.4 154.083 380.373 158.08L456.32 234.667H21.3333C15.6754 234.667 10.2492 236.914 6.24839 240.915C2.24761 244.916 0 250.342 0 256C0 261.658 2.24761 267.084 6.24839 271.085C10.2492 275.086 15.6754 277.333 21.3333 277.333H457.6L380.373 354.347C378.374 356.33 376.787 358.689 375.704 361.289C374.621 363.889 374.063 366.677 374.063 369.493C374.063 372.31 374.621 375.098 375.704 377.698C376.787 380.297 378.374 382.657 380.373 384.64C382.357 386.64 384.716 388.227 387.316 389.31C389.915 390.393 392.704 390.95 395.52 390.95C398.336 390.95 401.125 390.393 403.724 389.31C406.324 388.227 408.683 386.64 410.667 384.64L493.227 301.867C505.212 289.867 511.944 273.6 511.944 256.64C511.944 239.68 505.212 223.413 493.227 211.413Z" fill="black"/>
</g>
<defs>
<clipPath id="clip0_56_127">
<rect width="512" height="512" fill="white"/>
</clipPath>
</defs>
</svg>
