<svg width="512" height="512" viewBox="0 0 512 512" fill="none" xmlns="http://www.w3.org/2000/svg">
<g clip-path="url(#clip0_56_129)">
<path d="M447.959 512.001H441.742V474.9H428.064V470.034H461.637V474.9H447.959V512.001Z" fill="#00623A"/>
<path d="M489.618 502.27L502.674 470.034H512V512.001H505.783V476.724L491.483 512.001H487.753L473.453 476.724V512.001H467.236V470.034H476.562L489.618 502.27Z" fill="#00623A"/>
<path d="M503.605 251.804C503.605 390.738 390.922 503.606 251.682 503.606C112.683 503.368 0 390.738 0 251.804C0 112.87 112.683 0.0020752 251.923 0.0020752C390.922 0.0020752 503.605 112.631 503.605 251.804Z" fill="white"/>
<path d="M276.888 108.805C274.738 108.327 263.987 106.653 251.564 106.653C239.142 106.653 228.391 108.327 226.241 108.805C225.047 109.044 224.568 107.848 225.524 107.131C226.479 106.414 251.564 87.284 251.564 87.284C251.564 87.284 276.649 106.414 277.605 107.131C278.56 107.848 278.082 109.044 276.888 108.805ZM233.169 233.391C233.169 233.391 231.735 233.869 231.497 235.065C236.752 239.13 240.336 248.456 251.326 248.456C262.316 248.456 265.899 239.13 271.155 235.065C270.916 233.869 269.483 233.391 269.483 233.391C269.483 233.391 262.554 235.065 251.326 235.065C240.097 235.064 233.169 233.391 233.169 233.391ZM251.564 217.847C248.458 217.847 247.742 216.652 245.83 216.652C243.919 216.652 240.096 218.326 239.141 219.76C239.141 220.478 239.379 221.195 240.096 221.674C244.635 222.391 246.546 224.782 251.802 224.782C257.058 224.782 258.969 222.391 263.508 221.674C263.986 221.196 264.225 220.478 264.463 219.76C263.746 218.326 259.685 216.652 257.774 216.652C255.148 216.652 254.431 217.847 251.564 217.847ZM502.649 265.433C502.411 271.412 501.694 277.389 500.977 283.368C472.548 288.151 462.275 262.802 433.129 263.999C434.802 270.216 436.235 276.434 437.43 282.89C461.559 282.89 471.114 305.368 497.872 302.02C496.438 308.955 494.766 315.65 492.855 322.346C471.593 324.498 464.186 303.454 439.819 303.933C440.058 307.52 440.058 310.868 440.058 314.455V320.433C460.842 320.194 467.77 339.563 487.599 338.607C485.21 345.302 482.343 351.998 479.238 358.455C464.904 357.737 460.126 339.324 438.386 340.759C437.669 345.542 436.952 350.085 435.997 354.628C454.87 353.194 458.931 370.649 472.549 372.085C469.204 378.302 465.382 384.52 461.559 390.498C453.437 386.194 446.509 373.281 431.458 372.325C433.13 367.542 434.325 362.76 435.52 357.738C422.142 357.738 406.613 352.477 393.712 340.76C397.773 316.847 360.743 292.456 360.743 274.999C360.743 256.108 370.299 245.587 370.299 219.999C370.299 200.869 360.981 180.304 347.126 166.196C344.498 163.565 341.632 161.174 338.525 159.261C351.187 175.043 361.221 193.934 361.221 215.456C361.221 239.608 349.993 252.282 349.993 274.521C349.993 296.759 382.483 316.129 382.483 339.086C382.483 348.173 379.617 357.02 370.06 374.238C384.633 388.825 403.745 396.716 415.929 396.716C419.991 396.716 422.141 395.52 423.574 392.411C424.768 389.781 425.964 386.912 427.158 384.281C440.297 384.759 446.509 396.716 453.676 401.737C449.614 407.237 445.553 412.259 441.014 417.281C435.997 411.781 429.547 402.694 419.752 400.064C418.08 403.412 416.169 406.759 414.258 410.108C422.62 412.26 428.353 420.868 432.653 426.369C427.875 431.391 422.858 435.934 417.841 440.478C414.735 435.456 409.719 429.239 403.985 425.652C401.835 428.522 399.684 431.152 397.535 433.783C402.313 437.131 406.613 442.87 409.241 447.652C403.268 452.435 397.056 456.978 390.845 461.283C387.739 435.696 352.86 418.24 362.177 388.588C359.071 393.849 355.487 400.305 355.487 408.197C355.487 429.719 378.421 446.697 380.094 467.979C375.316 470.849 370.538 473.479 365.521 476.109C364.805 452.675 340.436 427.088 340.436 407.719C340.436 386.197 368.627 364.676 368.627 339.328C368.627 313.981 336.136 296.285 336.136 274.047C336.136 251.808 349.993 238.895 349.993 210.438C349.993 189.634 340.198 168.352 324.669 154.96C322.041 152.569 319.413 150.656 316.068 148.982C330.641 166.439 339.003 181.982 339.003 205.894C339.003 232.677 323.235 247.742 323.235 273.807C323.235 300.111 355.009 314.698 355.009 339.089C355.009 363.479 325.385 384.284 325.385 409.392C325.385 432.349 351.425 455.066 351.903 482.327C346.169 484.718 340.435 487.11 334.463 489.262C337.807 461.762 308.422 433.545 308.422 411.067C308.422 386.676 339.24 365.633 339.24 339.089C339.24 312.785 307.944 300.35 307.944 273.328C307.944 246.306 327.056 231.242 327.056 201.35C327.056 177.916 315.589 157.111 298.627 143.959C298.389 143.72 297.91 143.481 297.672 143.241C295.999 142.046 294.805 143.48 295.999 144.915C307.945 159.74 314.156 174.806 314.156 197.045C314.156 224.544 292.177 246.784 292.177 273.327C292.177 304.653 321.801 313.5 321.801 339.326C321.801 364.913 290.028 385.478 290.028 412.739C290.028 438.086 320.129 466.065 314.873 495.238C308.9 496.912 302.689 498.108 296.478 499.304C302.212 462.956 272.588 436.891 272.588 412.979C272.588 387.153 305.317 364.196 305.317 339.088C305.317 315.414 281.666 307.523 278.56 283.371C278.082 280.023 275.454 277.632 271.871 278.11C267.093 279.067 260.882 282.175 251.326 282.175C241.77 282.175 235.558 279.067 230.781 278.11C227.197 277.392 224.569 280.023 224.091 283.371C220.985 307.762 197.334 315.414 197.334 339.088C197.334 364.196 230.063 387.153 230.063 412.979C230.063 436.653 200.678 462.957 206.173 499.304C199.962 498.108 193.989 496.913 187.777 495.238C182.522 466.065 212.623 438.086 212.623 412.739C212.623 385.478 180.849 364.913 180.849 339.326C180.849 313.74 210.473 304.653 210.473 273.327C210.473 246.784 188.494 224.544 188.494 197.045C188.494 174.806 194.944 159.74 206.651 144.915C207.845 143.48 206.413 142.045 204.979 143.241C204.74 143.48 204.262 143.719 204.023 143.959C187.3 156.872 175.594 177.915 175.594 201.35C175.594 231.241 194.707 246.306 194.707 273.328C194.707 300.35 163.41 312.785 163.41 339.089C163.41 365.393 194.228 386.436 194.228 411.067C194.228 433.545 164.844 461.762 168.188 489.262C162.215 487.11 156.482 484.958 150.748 482.327C151.226 455.066 177.266 432.349 177.266 409.392C177.266 384.284 147.642 363.479 147.642 339.089C147.642 314.698 179.415 299.872 179.415 273.807C179.415 247.503 163.648 232.677 163.648 205.894C163.648 181.981 172.01 166.199 186.582 148.982C183.476 150.656 180.61 152.569 177.982 154.96C162.931 168.352 153.136 189.634 153.136 210.438C153.136 238.894 166.993 251.807 166.993 274.047C166.993 296.285 134.502 313.981 134.502 339.328C134.502 364.676 162.692 386.198 162.692 407.719C162.692 427.089 138.563 452.675 137.607 476.109C132.59 473.479 127.813 470.849 123.034 467.979C124.945 446.697 147.641 429.718 147.641 408.197C147.641 400.305 144.057 393.849 140.951 388.588C150.269 418.24 115.389 435.696 112.283 461.283C105.833 456.978 99.8601 452.435 93.8871 447.652C96.5151 442.869 100.815 437.131 105.593 433.783C103.443 431.153 101.293 428.283 99.1431 425.652C93.6491 429 88.6311 435.456 85.2871 440.478C80.2691 435.935 75.2531 431.152 70.4751 426.369C74.7751 420.869 80.5081 412.5 88.8701 410.108C86.9591 406.76 85.0481 403.652 83.3761 400.064C73.8191 402.694 67.1311 411.781 62.1141 417.281C57.5751 412.259 53.5131 406.998 49.4521 401.737C56.8581 396.954 62.8301 384.998 75.9701 384.281C77.1641 387.151 78.1201 389.78 79.5531 392.411C80.9871 395.52 83.1371 396.716 87.1991 396.716C99.3831 396.716 118.495 388.824 133.067 374.238C123.511 357.021 120.645 348.173 120.645 339.086C120.645 316.129 153.135 296.999 153.135 274.521C153.135 252.282 141.907 239.608 141.907 215.456C141.907 193.695 151.701 175.043 164.602 159.261C161.496 161.174 158.63 163.565 156.002 166.196C142.145 180.304 132.829 200.869 132.829 219.999C132.829 245.586 142.385 256.107 142.385 274.999C142.385 292.456 105.355 316.847 109.656 340.76C96.7551 352.477 81.2271 357.738 67.8481 357.738C69.0421 362.76 70.4761 367.542 71.9091 372.325C56.6201 373.042 49.6921 386.194 41.8081 390.498C37.7471 384.52 34.1631 378.302 30.8191 372.085C44.4361 370.65 48.4981 353.194 67.3701 354.628C66.4151 350.085 65.4591 345.302 64.9811 340.759C43.2411 339.324 38.2241 357.737 24.1291 358.455C21.0231 351.998 18.3951 345.303 15.7671 338.607C35.5961 339.563 42.5241 320.194 63.3091 320.433C63.3091 318.52 63.3091 316.607 63.3091 314.455C63.3091 310.868 63.3091 307.281 63.5471 303.933C39.1791 303.455 31.5351 324.499 10.5111 322.346C8.60005 315.65 6.92805 308.954 5.49405 302.02C32.2511 305.368 41.8071 282.89 65.9361 282.89C67.1301 276.434 68.3251 270.216 70.2361 263.999C41.0901 262.803 30.8171 288.151 2.38805 283.368C1.67105 277.389 1.19405 271.412 0.716051 265.433C33.6841 269.26 46.1071 241.999 76.4471 245.347C79.3141 238.173 82.6591 231.239 86.2421 224.542C48.4961 217.847 35.5951 249.412 0.477051 244.629C3.82405 108.805 114.913 0.000976562 251.564 0.000976562C387.977 0.000976562 499.066 108.805 502.888 244.63C467.77 249.413 454.869 217.847 417.122 224.543C420.944 231.239 424.051 238.174 426.917 245.348C457.019 241.999 469.442 269.26 502.649 265.433ZM143.342 159.978C124.947 152.326 102.49 154.239 83.3791 166.435C80.5121 148.5 70.7171 132.718 56.8611 123.153C54.9501 121.718 53.0391 123.153 53.0391 125.305C55.9061 163.087 33.9271 195.608 6.93105 224.543C34.8821 232.913 58.5341 197.044 94.6081 209.479C107.746 190.108 124.23 173.369 143.342 159.978ZM251.564 137.261C228.152 137.261 208.562 150.413 203.545 167.63C203.067 168.826 203.784 169.782 205.217 169.064C209.518 167.151 214.295 166.195 219.312 166.195C228.869 166.195 237.23 169.782 242.247 175.76C244.397 182.934 244.636 193.455 242.247 199.434C238.425 198.477 236.991 195.607 233.169 195.607C229.347 195.607 226.479 198.237 219.791 198.237C213.341 198.237 212.624 195.129 208.324 195.129C203.306 195.129 202.351 200.389 202.351 206.129C202.351 232.194 226.241 268.063 251.803 268.063C277.127 268.063 301.017 232.194 301.017 206.129C301.017 200.39 299.822 195.369 294.567 194.651C291.939 196.564 289.549 198.238 283.577 198.238C277.127 198.238 275.215 195.608 271.393 195.608C266.854 195.608 267.331 205.412 261.836 205.891C258.253 197.043 258.014 185.805 261.12 175.761C266.137 169.782 274.498 166.196 284.054 166.196C289.31 166.196 294.087 167.152 298.149 169.065C299.583 169.783 300.299 168.827 299.821 167.631C294.328 150.413 274.737 137.261 251.564 137.261ZM288.594 174.565C283.099 174.565 276.41 176.239 272.349 180.783C271.871 181.978 271.871 183.891 272.588 185.087C282.622 181.5 291.7 181.5 296 186.282C298.39 184.13 299.106 182.217 299.106 180.065C299.106 176.956 295.522 174.565 288.594 174.565ZM207.129 186.521C211.907 181.499 222.419 181.738 233.17 185.804C233.648 180.543 224.092 174.564 214.536 174.564C207.608 174.564 204.263 176.955 204.263 180.303C204.023 182.456 204.74 184.369 207.129 186.521ZM367.909 98.283C349.513 99.479 333.507 105.935 320.606 116.456C326.101 100.913 333.029 87.283 341.868 73.891C318.456 76.282 298.866 84.891 284.532 99.717L273.304 70.305L298.149 48.305L264.942 45.914L251.563 14.827L238.185 45.914L204.978 48.305L229.823 70.305L218.595 99.717C204.261 85.131 184.671 76.522 161.259 73.891C170.098 87.043 177.026 100.674 182.521 116.456C169.62 105.935 153.613 99.479 135.218 98.283C146.208 112.631 156.003 127.696 163.408 143.957C164.125 145.87 166.036 146.348 167.947 145.391C193.271 132.957 221.7 125.783 251.801 125.783C281.902 125.783 310.332 132.957 335.655 145.391C337.566 146.348 339.238 145.63 340.194 143.957C347.125 127.696 356.92 112.63 367.909 98.283ZM408.044 209.478C444.118 197.043 468.008 232.912 495.96 224.542C468.964 195.847 446.985 163.086 449.852 125.304C450.091 123.152 447.941 121.717 446.269 123.152C432.413 132.717 422.856 148.499 419.751 166.434C400.639 153.999 378.183 152.325 359.787 159.977C378.66 173.369 395.144 190.108 408.044 209.478Z" fill="#00623A"/>
</g>
<defs>
<clipPath id="clip0_56_129">
<rect width="512" height="512" fill="white"/>
</clipPath>
</defs>
</svg>
