<svg width="512" height="512" viewBox="0 0 512 512" fill="none" xmlns="http://www.w3.org/2000/svg">
<g clip-path="url(#clip0_56_107)">
<path d="M373.333 40.896C349.311 41.2696 325.812 47.9755 305.211 60.3364C284.609 72.6974 267.634 90.2756 256 111.296C244.366 90.2756 227.391 72.6974 206.789 60.3364C186.188 47.9755 162.689 41.2696 138.667 40.896C100.372 42.5598 64.2924 59.3121 38.31 87.493C12.3277 115.674 -1.44534 152.993 5.38736e-06 191.296C5.38736e-06 288.299 102.101 394.24 187.733 466.069C206.853 482.136 231.026 490.945 256 490.945C280.974 490.945 305.147 482.136 324.267 466.069C409.899 394.24 512 288.299 512 191.296C513.445 152.993 499.672 115.674 473.69 87.493C447.708 59.3121 411.628 42.5598 373.333 40.896Z" fill="black"/>
</g>
<defs>
<clipPath id="clip0_56_107">
<rect width="512" height="512" fill="white"/>
</clipPath>
</defs>
</svg>
