<svg width="512" height="512" viewBox="0 0 512 512" fill="none" xmlns="http://www.w3.org/2000/svg">
<path d="M368 256C368 260.243 366.314 264.313 363.314 267.314C360.313 270.314 356.243 272 352 272H160C155.757 272 151.687 270.314 148.686 267.314C145.686 264.313 144 260.243 144 256C144 251.757 145.686 247.687 148.686 244.686C151.687 241.686 155.757 240 160 240H352C356.243 240 360.313 241.686 363.314 244.686C366.314 247.687 368 251.757 368 256ZM480 256C480 300.303 466.863 343.611 442.249 380.448C417.636 417.284 382.652 445.995 341.721 462.949C300.79 479.903 255.752 484.339 212.3 475.696C168.848 467.053 128.935 445.719 97.6081 414.392C66.2811 383.065 44.9472 343.152 36.3041 299.7C27.661 256.248 32.0969 211.21 49.051 170.279C66.005 129.348 94.7156 94.3642 131.552 69.7508C168.389 45.1374 211.697 32 256 32C315.408 32 372.384 55.5999 414.392 97.6081C456.4 139.616 480 196.592 480 256ZM448 256C448 218.026 436.739 180.905 415.642 149.331C394.545 117.756 364.559 93.1472 329.475 78.6151C294.392 64.0831 255.787 60.2809 218.543 67.6892C181.298 75.0976 147.087 93.3838 120.235 120.235C93.3838 147.087 75.0976 181.298 67.6892 218.543C60.2808 255.787 64.0831 294.392 78.6151 329.475C93.1471 364.559 117.756 394.545 149.33 415.642C180.905 436.739 218.026 448 256 448C306.922 448 355.757 427.771 391.764 391.764C427.771 355.758 448 306.922 448 256Z" fill="black"/>
</svg>
