<svg width="512" height="512" viewBox="0 0 512 512" fill="none" xmlns="http://www.w3.org/2000/svg">
<g clip-path="url(#clip0_56_98)">
<path d="M256 128C239.123 128 222.624 133.005 208.591 142.381C194.558 151.758 183.621 165.085 177.162 180.678C170.703 196.27 169.014 213.428 172.306 229.981C175.599 246.534 183.726 261.739 195.66 273.673C207.594 285.607 222.799 293.734 239.352 297.027C255.905 300.32 273.063 298.63 288.656 292.171C304.248 285.712 317.575 274.775 326.952 260.742C336.328 246.709 341.333 230.211 341.333 213.333C341.333 190.702 332.343 168.997 316.34 152.994C300.337 136.99 278.632 128 256 128ZM256 256C247.561 256 239.312 253.498 232.296 248.809C225.279 244.121 219.81 237.457 216.581 229.661C213.352 221.865 212.507 213.286 214.153 205.009C215.799 196.733 219.863 189.13 225.83 183.163C231.797 177.196 239.4 173.133 247.676 171.486C255.953 169.84 264.531 170.685 272.328 173.914C280.124 177.144 286.788 182.613 291.476 189.629C296.164 196.646 298.667 204.895 298.667 213.333C298.667 224.649 294.171 235.502 286.17 243.503C278.168 251.505 267.316 256 256 256Z" fill="black"/>
<path d="M256 512C238.036 512.092 220.312 507.879 204.311 499.713C188.31 491.547 174.498 479.667 164.032 465.067C82.7307 352.917 41.4934 268.608 41.4934 214.464C41.4934 157.573 64.0931 103.013 104.321 62.7849C144.549 22.5571 199.109 -0.0426636 256 -0.0426636C312.891 -0.0426636 367.451 22.5571 407.679 62.7849C447.907 103.013 470.507 157.573 470.507 214.464C470.507 268.608 429.269 352.917 347.968 465.067C337.502 479.667 323.69 491.547 307.689 499.713C291.688 507.879 273.964 512.092 256 512ZM256 46.528C211.465 46.5788 168.768 64.2928 137.277 95.7839C105.786 127.275 88.0722 169.972 88.0214 214.507C88.0214 257.387 128.405 336.683 201.707 437.781C207.93 446.353 216.093 453.329 225.53 458.139C234.967 462.949 245.408 465.457 256 465.457C266.592 465.457 277.034 462.949 286.47 458.139C295.907 453.329 304.071 446.353 310.293 437.781C383.595 336.683 423.979 257.387 423.979 214.507C423.928 169.972 406.214 127.275 374.723 95.7839C343.232 64.2928 300.535 46.5788 256 46.528Z" fill="black"/>
</g>
<defs>
<clipPath id="clip0_56_98">
<rect width="512" height="512" fill="white"/>
</clipPath>
</defs>
</svg>
