<svg width="512" height="512" viewBox="0 0 512 512" fill="none" xmlns="http://www.w3.org/2000/svg">
<g clip-path="url(#clip0_56_105)">
<path d="M490.667 85.3333C490.667 96.6492 486.171 107.502 478.17 115.503C470.168 123.505 459.316 128 448 128H63.9999C52.684 128 41.8316 123.505 33.83 115.503C25.8285 107.502 21.3333 96.6492 21.3333 85.3333C21.3333 74.0174 25.8285 63.165 33.83 55.1634C41.8316 47.1619 52.684 42.6667 63.9999 42.6667H89.2586C93.655 30.2313 101.786 19.458 112.54 11.8205C123.293 4.18312 136.144 0.0546766 149.333 0L362.667 0C375.856 0.0546766 388.707 4.18312 399.46 11.8205C410.214 19.458 418.345 30.2313 422.741 42.6667H448C459.316 42.6667 470.168 47.1619 478.17 55.1634C486.171 63.165 490.667 74.0174 490.667 85.3333ZM213.333 341.333C215.573 425.685 296.427 425.664 298.667 341.333C296.533 256.981 215.573 257.003 213.333 341.333ZM172.395 320C191.424 207.211 320.619 207.275 339.605 320H448.149L463.829 194.645C464.204 191.644 463.937 188.598 463.045 185.708C462.153 182.818 460.657 180.151 458.655 177.884C456.654 175.616 454.194 173.8 451.437 172.556C448.681 171.311 445.691 170.668 442.667 170.667H69.3333C66.3089 170.668 63.3193 171.311 60.5627 172.556C57.8061 173.8 55.3456 175.616 53.3444 177.884C51.3431 180.151 49.8469 182.818 48.9549 185.708C48.0629 188.598 47.7956 191.644 48.1706 194.645L63.8293 320H172.395ZM339.605 362.667C320.576 475.456 191.403 475.392 172.395 362.667H69.1626L76.1599 418.56C79.4187 444.342 91.9629 468.053 111.444 485.252C130.925 502.452 156.007 511.961 181.995 512H330.005C355.993 511.961 381.075 502.452 400.556 485.252C420.037 468.053 432.581 444.342 435.84 418.56L442.816 362.667H339.605Z" fill="black"/>
</g>
<defs>
<clipPath id="clip0_56_105">
<rect width="512" height="512" fill="white"/>
</clipPath>
</defs>
</svg>
